<svg id="Close" xmlns="http://www.w3.org/2000/svg" xmlns:xlink="http://www.w3.org/1999/xlink" viewBox="0 0 13.185 13.185">
  <defs>
    <clipPath id="clip-path">
      <path id="Icon" d="M12.892.3a1,1,0,0,0-1.41,0l-4.89,4.88L1.7.292A1,1,0,0,0,.292,1.7l4.89,4.89-4.89,4.89a1,1,0,0,0,1.41,1.41L6.593,8l4.89,4.89a1,1,0,0,0,1.41-1.41L8,6.592l4.89-4.89A1,1,0,0,0,12.892.3Z" fill="#000"/>
    </clipPath>
  </defs>
  <path id="Icon-2" data-name="Icon" d="M12.892.3a1,1,0,0,0-1.41,0l-4.89,4.88L1.7.292A1,1,0,0,0,.292,1.7l4.89,4.89-4.89,4.89a1,1,0,0,0,1.41,1.41L6.593,8l4.89,4.89a1,1,0,0,0,1.41-1.41L8,6.592l4.89-4.89A1,1,0,0,0,12.892.3Z" fill="#000"/>
</svg>
