<?xml version="1.0" encoding="utf-8"?>
<!-- Generator: Adobe Illustrator 26.0.2, SVG Export Plug-In . SVG Version: 6.00 Build 0)  -->
<svg version="1.1" id="Layer_1" xmlns="http://www.w3.org/2000/svg" xmlns:xlink="http://www.w3.org/1999/xlink" x="0px" y="0px"
	 viewBox="0 0 304.3 304.3" style="enable-background:new 0 0 304.3 304.3;" xml:space="preserve">
<style type="text/css">
	.st0{fill:#7a469a;}
</style>
<g>
	<path class="st0" d="M217.1,62l-20.9-20.9L66.7,170.6l-1.4,1.4l-19.1-19.1l1.4-1.4l0,0L177.1,21.9L156.6,1.5
		c-2.3-2.1-5.8-1.9-7.9,0.3l-147,147c-2.2,2.1-2.4,5.6-0.3,7.9L62,217.1c2.3,2.1,5.8,1.9,7.9-0.3l147-147
		C219.1,67.7,219.2,64.2,217.1,62z"/>
	<path class="st0" d="M147.7,302.8l-20.9-20.9l129.5-129.5l1.3-1.4l-19.1-19l-1.4,1.4l0,0L107.6,262.8l-20.5-20.5
		c-2.1-2.3-1.9-5.8,0.3-7.9l147-147c2.1-2.3,5.6-2.4,7.9-0.3l60.5,60.5c2.1,2.3,1.9,5.8-0.3,7.9l-147,147
		C153.4,304.7,149.9,304.9,147.7,302.8z"/>
</g>
</svg>
