<?xml version="1.0" standalone="no"?>
<!DOCTYPE svg PUBLIC "-//W3C//DTD SVG 20010904//EN"
 "http://www.w3.org/TR/2001/REC-SVG-20010904/DTD/svg10.dtd">
<svg version="1.0" xmlns="http://www.w3.org/2000/svg"
 width="512.000000pt" height="512.000000pt" viewBox="0 0 512.000000 512.000000"
 preserveAspectRatio="xMidYMid meet">

<g transform="translate(0.000000,512.000000) scale(0.100000,-0.100000)"
fill="#000000" stroke="none">
<path d="M1295 5106 c-16 -8 -233 -218 -482 -467 -444 -446 -451 -455 -458
-501 -16 -107 76 -199 183 -183 46 7 55 15 354 313 l308 306 2 -2236 3 -2237
21 -27 c39 -53 71 -69 134 -69 63 0 95 16 134 69 l21 27 3 2237 2 2236 308
-306 c299 -298 308 -306 354 -313 107 -16 199 76 183 183 -7 46 -14 55 -458
501 -258 258 -466 459 -484 467 -40 17 -89 17 -128 0z"/>
<path d="M3695 5106 c-37 -17 -70 -52 -84 -89 -8 -20 -11 -701 -11 -2250 l0
-2221 -307 306 c-300 298 -309 306 -355 313 -107 16 -199 -76 -183 -183 6 -46
14 -54 468 -509 406 -406 467 -463 500 -468 92 -17 73 -32 574 468 454 455
462 463 468 509 16 107 -76 199 -183 183 -46 -7 -55 -15 -354 -313 l-308 -306
-2 2236 -3 2237 -21 27 c-11 15 -32 37 -46 47 -34 25 -113 32 -153 13z"/>
</g>
</svg>
